<svg xmlns="http://www.w3.org/2000/svg" viewBox="0 0 40 50" fill="none" x="0px" y="0px"><path fill-rule="evenodd" clip-rule="evenodd" d="M20.7071 9.29289C20.3166 8.90237 19.6834 8.90237 19.2929 9.29289L12.6262 15.9596C12.2357 16.3501 12.2357 16.9832 12.6262 17.3738C13.0168 17.7643 13.6499 17.7643 14.0404 17.3738L19 12.4142L19 30C19 30.5523 19.4477 31 20 31C20.5523 31 21 30.5523 21 30L21 12.4142L25.9596 17.3738C26.3501 17.7643 26.9833 17.7643 27.3738 17.3738C27.7643 16.9832 27.7643 16.3501 27.3738 15.9596L20.7071 9.29289Z" fill="black"/><text x="0" y="55" fill="#000000" font-size="5px" font-weight="bold" font-family="'Helvetica Neue', Helvetica, Arial-Unicode, Arial, Sans-serif">Created by Milan Gladiš</text><text x="0" y="60" fill="#000000" font-size="5px" font-weight="bold" font-family="'Helvetica Neue', Helvetica, Arial-Unicode, Arial, Sans-serif">from the Noun Project</text></svg>